<?xml version="1.0" encoding="UTF-8" standalone="no"?>
<svg
   xmlns:dc="http://purl.org/dc/elements/1.1/"
   xmlns:cc="http://creativecommons.org/ns#"
   xmlns:rdf="http://www.w3.org/1999/02/22-rdf-syntax-ns#"
   xmlns:svg="http://www.w3.org/2000/svg"
   xmlns="http://www.w3.org/2000/svg"
   xmlns:sodipodi="http://sodipodi.sourceforge.net/DTD/sodipodi-0.dtd"
   xmlns:inkscape="http://www.inkscape.org/namespaces/inkscape"
   version="1.1"
   id="Layer_1"
   x="0px"
   y="0px"
   width="100px"
   height="100px"
   viewBox="0 0 100 100"
   enable-background="new 0 0 100 100"
   xml:space="preserve"
   inkscape:version="0.48.4 r9939"
   sodipodi:docname="like.svg"><metadata
     id="metadata15"><rdf:RDF><cc:Work
         rdf:about=""><dc:format>image/svg+xml</dc:format><dc:type
           rdf:resource="http://purl.org/dc/dcmitype/StillImage" /></cc:Work></rdf:RDF></metadata><defs
     id="defs13" /><sodipodi:namedview
     pagecolor="#ffffff"
     bordercolor="#666666"
     borderopacity="1"
     objecttolerance="10"
     gridtolerance="10"
     guidetolerance="10"
     inkscape:pageopacity="0"
     inkscape:pageshadow="2"
     inkscape:window-width="1920"
     inkscape:window-height="1056"
     id="namedview11"
     showgrid="false"
     inkscape:zoom="3.337544"
     inkscape:cx="-33.792876"
     inkscape:cy="49.538591"
     inkscape:window-x="0"
     inkscape:window-y="24"
     inkscape:window-maximized="1"
     inkscape:current-layer="Layer_1" /><g
     id="g3"
     transform="matrix(1.246629,0,0,1.246629,-27.709116,-12.551258)"
     style="stroke:none;stroke-opacity:1;fill:#ffffff;fill-opacity:1"><g
       id="g5"
       style="stroke:none;stroke-opacity:1;fill:#ffffff;fill-opacity:1"><path
         d="m 95.129201,48.534345 c 0,-5.249 -6.361108,-6.042 -6.361108,-6.042 L 66.275,42.252 c 0,0 -1.841,-2.357 -0.266,-7.347 1.574,-4.989 1.841,-12.336 0.526,-15.486 -1.309,-3.149 -3.675,-8.926 -9.713,-9.187 -3.541,0.542 -4.725,3.41 -4.725,3.41 l 1.201727,11.434827 c 0,0 -11.162827,20.109482 -12.736827,20.369482 -1.579,0.266 -12.791081,1.654864 -12.791081,1.654864 l 0,36.225 L 33.202,83.206 c 0,0 13.385,6.561 16.007,6.561 2.628,0 33.078,0 33.078,0 0,0 4.724,-1.053 4.724,-6.299 0,-3.41 -2.888,-5.516 -2.888,-5.516 0,0 7.091,-0.523 7.091,-6.559 0,-2.479 -3.417,-4.725 -3.417,-4.725 0,0 6.565,-1.314 6.305,-6.824 -0.527,-3.412 -5.009799,-5.852863 -5.009799,-5.852863 0,0 6.037,-0.209792 6.037,-5.456792 z"
         id="path9"
         inkscape:connector-curvature="0"
         style="fill:#ffffff;stroke:none;stroke-opacity:1;fill-opacity:1"
         sodipodi:nodetypes="scccccccccccscscscccs" /></g></g></svg>